<svg xmlns="http://www.w3.org/2000/svg" xmlns:xlink="http://www.w3.org/1999/xlink" width="22.94cm" height="6.58cm" viewBox="0 0 650.19 186.47"><defs><linearGradient id="fd49c625-a7d6-408c-8bfd-32a628d9b319" x1="-40.23" y1="444.99" x2="-35.69" y2="444.99" gradientTransform="matrix(6.7, 11.61, 11.61, -6.7, -4696.2, 3582.9)" gradientUnits="userSpaceOnUse"><stop offset="0" stop-color="#7c7c7b"/><stop offset="0.27" stop-color="#5b5b5a"/><stop offset="0.56" stop-color="#40403f"/><stop offset="0.81" stop-color="#30302f"/><stop offset="1" stop-color="#2a2a29"/></linearGradient><linearGradient id="f6d5aecb-827c-44d5-a0fc-0273cbeb2bcf" x1="-46.81" y1="436.23" x2="-42.27" y2="436.23" gradientTransform="matrix(5.16, 8.94, 8.94, -5.16, -3498.71, 2827.13)" gradientUnits="userSpaceOnUse"><stop offset="0" stop-color="#9c1006"/><stop offset="0.08" stop-color="#951005"/><stop offset="0.44" stop-color="#7a0e02"/><stop offset="0.76" stop-color="#6a0c01"/><stop offset="1" stop-color="#640c00"/></linearGradient></defs><g id="b1c34484-f0b0-4ce3-92d6-e86880c44de6" data-name="Technology POS"><path d="M312.36,228h-8.43v25.9h-4.11V228h-8.43v-3.7h21Z" transform="translate(-76.03 -76.04)"/><path d="M328.18,247.91a8.1,8.1,0,0,1-8.06,6.37c-6.41,0-9.17-4.48-9.17-10.36v-.66c-.16-6.45,3.46-11.18,8.68-11.18,5.63,0,8.55,4,8.55,10.94v1.8H314.7c.2,3.83,1.68,6.17,5.42,6.17a4,4,0,0,0,4.07-3.08Zm-13.36-6.37h9.62c-.21-4.07-1.69-6.17-4.81-6.17C316.67,235.37,315.27,237.59,314.82,241.54Z" transform="translate(-76.03 -76.04)"/><path d="M345,246.88h3.9c0,3.74-3.82,7.4-8.55,7.4-6.62,0-8.71-4.81-8.71-10.89v-.62c0-6.45,2.75-10.69,8.71-10.69a8.22,8.22,0,0,1,8.55,7.81H345c-.21-2.79-1.85-4.52-4.65-4.52-3.78,0-5,2.38-5,7.52v.7c0,5,1.19,7.4,5,7.4A4.37,4.37,0,0,0,345,246.88Z" transform="translate(-76.03 -76.04)"/><path d="M357,235.12a7.76,7.76,0,0,1,6.33-3c4.56,0,6.82,2.59,6.82,7.77v14h-3.7V239.81c0-3.12-1.27-4.44-4.23-4.44-2.43,0-4.24,1.85-5.22,4v14.51h-3.7v-29.6H357Z" transform="translate(-76.03 -76.04)"/><path d="M378.85,232.49v2.72a7.7,7.7,0,0,1,6.41-3.13c4.57,0,6.83,2.59,6.83,7.77v14h-3.7V239.81c0-3.12-1.28-4.44-4.24-4.44-2.42,0-4.23,1.85-5.22,4v14.51h-3.7V232.49Z" transform="translate(-76.03 -76.04)"/><path d="M396.4,243.39v-.62c0-6.45,2.67-10.69,8.63-10.69s8.63,4.24,8.63,10.69v.62c0,6.08-2,10.89-8.63,10.89S396.4,249.47,396.4,243.39Zm3.7-.5v.7c0,5,1.11,7.4,4.93,7.4s4.94-2.42,4.94-7.4v-.7c0-5.14-1.16-7.52-4.94-7.52S400.1,237.75,400.1,242.89Z" transform="translate(-76.03 -76.04)"/><path d="M422.09,253.87h-3.7v-29.6h3.7Z" transform="translate(-76.03 -76.04)"/><path d="M426.82,243.39v-.62c0-6.45,2.67-10.69,8.63-10.69s8.63,4.24,8.63,10.69v.62c0,6.08-2,10.89-8.63,10.89S426.82,249.47,426.82,243.39Zm3.69-.5v.7c0,5,1.11,7.4,4.94,7.4s4.93-2.42,4.93-7.4v-.7c0-5.14-1.15-7.52-4.93-7.52S430.51,237.75,430.51,242.89Z" transform="translate(-76.03 -76.04)"/><path d="M461.55,253.66v-3a7,7,0,0,1-5.92,2.8c-5.31,0-8.06-4.77-8.06-10.44,0-6,2.05-10.94,8.14-10.94a6.83,6.83,0,0,1,6,2.92v-2.51h3.58v20.93c0,5.63-3.17,9.08-8.8,9.08a8.1,8.1,0,0,1-8.06-6.37h4a4,4,0,0,0,4.07,3.08C459.78,259.21,461.55,257.32,461.55,253.66Zm-5-3.49c2.43,0,3.91-1.36,5-3.62V239c-1.11-2.26-2.51-3.62-4.94-3.62-3.57,0-5.34,2.47-5.34,7.61C451.27,247.46,452.91,250.17,456.57,250.17Z" transform="translate(-76.03 -76.04)"/><path d="M478.19,248.44l4.93-15.95h4.12l-8.47,24.67c-1.36,4.07-3.46,5.34-6.66,5.34a8.21,8.21,0,0,1-2.1-.25v-3.2a6.08,6.08,0,0,0,1.19.16c2.55,0,3.54-.82,4.48-3.45l.79-2.14-7.73-21.13h4.11Z" transform="translate(-76.03 -76.04)"/></g><g id="ad0bb1ae-1ef0-4ab4-b29c-1ffbfb529f0c" data-name="Sigma POS Word"><path d="M291.39,203.39h57.49c12.24,0,22.2-9.36,22.2-20.87v-3.91c0-11.3-9.41-20.46-21.42-20.85l-.39,0H310.42a5.93,5.93,0,0,1-6.11-5.73v-3.77a5.94,5.94,0,0,1,6.11-5.75h56.32V127.35H310.42c-12.24,0-22.2,9.36-22.2,20.87V152c0,11.5,10,20.87,22.2,20.87h38.46a5.94,5.94,0,0,1,6.1,5.75v3.91a5.94,5.94,0,0,1-6.1,5.74H291.39Z" transform="translate(-76.03 -76.04)"/><rect x="314.11" y="51.32" width="16.09" height="76.03"/><path d="M615.27,203.35h16.1V148.24c0-11.51-10-20.87-22.21-20.87H529v76h16V142.5h26.8l0,60.85h16.06V142.5h21.32a6,6,0,0,1,6.12,5.74Z" transform="translate(-76.03 -76.04)"/><path d="M726.23,148.22c0-11.51-10-20.87-22.22-20.87H652.9v15.13H704a6,6,0,0,1,6.12,5.74v9.51H669.56c-12.24,0-22.2,9.37-22.2,20.88v3.87c0,11.51,10,20.87,22.2,20.87h56.6Zm-16.14,40H669.56a6,6,0,0,1-6.12-5.74v-3.87a6,6,0,0,1,6.12-5.75h40.56Z" transform="translate(-76.03 -76.04)"/><path d="M427.93,182.53c0,11.51,10,20.87,22.2,20.87H506.8V157.78H464.46v15.13h26.16v15.36H450.13a5.94,5.94,0,0,1-6.11-5.74l0-34.29a6,6,0,0,1,6.12-5.75h56.53V127.37H450.12c-12.25,0-22.2,9.36-22.2,20.87Z" transform="translate(-76.03 -76.04)"/></g><g id="bdaced96-769c-4067-92d7-28f34ad713d8" data-name="Colour POS Symbol"><path d="M254.3,165.17c0-12.67-26.08-23.4-62.08-27h0c.86,8.54,1.33,17.62,1.33,27a270.72,270.72,0,0,1-1.33,27.05C228.22,188.57,254.3,177.85,254.3,165.17Z" transform="translate(-76.03 -76.04)" fill="url(#fd49c625-a7d6-408c-8bfd-32a628d9b319)"/><path d="M165.17,193.55a267.77,267.77,0,0,0,27.05-1.33,270.72,270.72,0,0,0,1.33-27.05c0-9.43-.47-18.51-1.33-27l-54.1,54.1A267.77,267.77,0,0,0,165.17,193.55Z" transform="translate(-76.03 -76.04)" fill="url(#f6d5aecb-827c-44d5-a0fc-0273cbeb2bcf)"/><path d="M165.17,136.79a270.72,270.72,0,0,1,27.05,1.33c-3.65-36-14.38-62.08-27.05-62.08s-23.4,26.08-27,62.08a270.72,270.72,0,0,1,27-1.33" transform="translate(-76.03 -76.04)" fill="#e30613"/><path d="M165.17,193.55a270.72,270.72,0,0,1-27-1.33c3.65,36,14.38,62.09,27,62.09s23.4-26.09,27.05-62.09a270.72,270.72,0,0,1-27.05,1.33" transform="translate(-76.03 -76.04)" fill="#e30613"/><path d="M136.79,165.17a270.72,270.72,0,0,1,1.33-27c-36,3.65-62.09,14.38-62.09,27s26.09,23.4,62.09,27.05a270.72,270.72,0,0,1-1.33-27.05" transform="translate(-76.03 -76.04)" fill="#e30613"/><path d="M138.12,138.12a275.74,275.74,0,0,0,0,54.1l54.1-54.1a275.74,275.74,0,0,0-54.1,0" transform="translate(-76.03 -76.04)" fill="#b70e0c"/></g></svg>